<?xml version="1.0" encoding="utf-8"?>
<!-- Generator: Adobe Illustrator 24.0.0, SVG Export Plug-In . SVG Version: 6.00 Build 0)  -->
<svg version="1.1" id="Layer_1" xmlns="http://www.w3.org/2000/svg" xmlns:xlink="http://www.w3.org/1999/xlink" x="0px" y="0px"
	 viewBox="0 0 1920 821.1" style="enable-background:new 0 0 1920 821.1;" xml:space="preserve">
<style type="text/css">
	.st0{fill:none;stroke:#000000;stroke-width:0.9016;stroke-miterlimit:10;}
	.st1{fill:none;stroke:#000000;stroke-miterlimit:10;}
</style>
<g>
	<path d="M726.5,320.6c0,1.1-0.6,1.9-1.7,2.5c-1.1,0.6-2.2,0.8-3.3,0.8c-1.5,0-3-0.3-4.4-1s-3.1-1.6-4.9-2.7
		c-0.9-0.6-2.1-1.4-3.5-2.4c-1.4-1-3-2.2-4.8-3.7c-0.5-0.3-1.3-1-2.7-2.1c-1.3-1-3.1-2.4-5.2-4.1c-4.3-3.4-6.8-5.2-7.4-5.4
		c-0.9-0.3-2.3-0.4-4.2-0.4c-0.4,0-1.1,0-2,0.1c-0.9,0-2.1,0.1-3.5,0.2c-1-0.7-1.5-1.9-1.5-3.7c0-1.5,0.5-2.4,1.6-2.7
		c0.1,0,0.4-0.1,0.7-0.1c0.3,0,0.7-0.1,1.1-0.1c0.4,0,0.8-0.1,1.3-0.1c0.5,0,0.9-0.1,1.4-0.1c3.6-0.6,6.8-1.6,9.5-3
		c1-0.5,2-1.1,2.9-1.6c1-0.6,1.9-1.2,2.9-1.8c2-1.3,3.7-2.8,5.2-4.4c1.6-1.6,2.3-3.1,2.3-4.7c0-1.1-0.3-2.2-1-3.2
		c-0.7-1-1.6-2-2.6-2.8c-1.1-0.8-2.2-1.5-3.5-2.2c-1.3-0.6-2.4-1.1-3.5-1.4c-2-0.6-4-0.8-6.1-0.8c-0.6,0-1.3,0-2.2,0.1
		c-0.8,0.1-1.8,0.1-2.9,0.2c-1,0.1-2,0.2-3,0.3c-0.9,0.1-1.8,0.2-2.6,0.4c-0.8,0.1-1.6,0.3-2.5,0.4c-0.9,0.2-1.9,0.3-2.9,0.6
		c0.6,1,1.2,2.5,1.6,4.7c0.5,2.1,0.7,3.8,0.7,5.2c0,0.8,0,1.6-0.1,2.3c0,0.8-0.1,1.5-0.1,2.2c-0.1,0.7-0.1,1.4-0.2,2.1
		c-0.1,0.7-0.2,1.5-0.3,2.2c-0.2,1.5-0.6,3.4-1,5.7c-0.7,4-1.2,7.1-1.4,9.3c-0.1,1.2-0.2,2.3-0.3,3.3c-0.1,1.1-0.1,2.1-0.1,3.1
		c0,1.8,0.2,3.5,0.5,4.9c0.3,1.4,0.9,2.9,1.8,4.3c-0.4,0.6-0.9,1.1-1.6,1.5c-0.7,0.4-1.4,0.6-2,0.6c-1.8,0-3.1-0.4-3.9-1.1
		c-0.9-0.8-1.4-1.7-1.6-2.9c-0.2-1.1-0.3-2.7-0.3-4.9c0-1.4,0.1-2.8,0.2-4.3c0.2-1.5,0.3-2.9,0.6-4.1c0.2-1.2,0.4-2.6,0.7-3.9
		c0.1-0.6,0.3-1.4,0.4-2.3c0.1-0.9,0.3-1.9,0.5-3.1c0.4-2.4,0.7-4.6,0.9-6.8c0.2-2.2,0.3-4.1,0.3-5.8c0-1.6-0.1-3.3-0.2-5.1
		c-0.1-1.7-0.3-3.6-0.5-5.5c-2.9,0.9-4.6,1.3-4.9,1.3c-0.8,0-1.4-0.3-1.6-0.8c-0.3-0.5-0.4-1.2-0.4-2.1c0-1,1-2,2.9-2.9
		c1-0.5,1.9-0.9,2.9-1.2s1.9-0.7,2.8-1c2.2-0.7,5-1.3,8.6-1.8c3.6-0.6,6.5-0.8,8.9-0.8c4.1,0,8,0.5,11.9,1.4c3.8,0.9,7,2.6,9.7,5
		c2.7,2.4,4,5.6,4,9.7c0,2.6-1,5.1-2.9,7.5c-1.9,2.4-4.2,4.5-6.8,6.2c-2.6,1.8-5.4,3.5-8.5,5.1c1.8,1.2,4.2,2.9,7.2,5.1
		c1.5,1.1,3,2.1,4.3,3c1.3,0.9,2.6,1.8,3.7,2.7c1.2,0.8,2.5,1.7,3.9,2.7c1.4,1,3,2,4.7,3.2c1.7,1.2,3.2,2.2,4.5,3
		C724.4,319.3,725.5,320,726.5,320.6z"/>
	<path d="M791.6,294.6c0,0.3,0,0.7-0.1,1.1s-0.2,0.9-0.3,1.3c-0.1,0.5-0.3,0.9-0.5,1.3c-0.2,0.4-0.4,0.7-0.5,1
		c-0.2,0.2-0.4,0.5-0.7,0.9c-0.3,0.4-0.7,0.8-1,1.2c-0.4,0.4-0.8,0.9-1.2,1.3c-0.4,0.5-0.9,0.9-1.4,1.3c-1.7,1.5-3.3,3-4.9,4.4
		c-1.6,1.4-3.2,2.7-4.9,3.8s-3.5,2-5.3,2.6c-1.8,0.7-3.8,1-6,0.9c-1,0-2-0.2-3-0.5c-1-0.4-2-0.9-2.8-1.5c-0.9-0.7-1.6-1.5-2.3-2.4
		c-0.6-0.9-1.1-2-1.4-3.1c-0.8,0.8-1.6,1.6-2.5,2.5c-0.9,0.9-1.7,1.7-2.7,2.6c-0.9,0.9-1.9,1.7-2.9,2.6c-1,0.8-2,1.6-3.1,2.3
		c-0.6,0.4-1.3,0.8-2.1,1.2c-0.8,0.4-1.7,0.8-2.6,1.2c-0.9,0.4-1.8,0.7-2.7,0.9c-0.9,0.2-1.7,0.3-2.4,0.3c-1.1,0-2-0.3-2.8-1
		c-0.8-0.7-1.4-1.5-2-2.5c-0.5-1-0.9-2.1-1.2-3.2c-0.3-1.1-0.4-2.1-0.4-3c0-1.8,0.3-3.6,0.8-5.4c0.5-1.8,1.2-3.7,2-5.4
		c0.8-1.8,1.7-3.4,2.7-5c1-1.6,2-3,3-4.2c1-1.3,2.2-2.6,3.6-3.8c1.4-1.3,2.8-2.4,4.3-3.4c1.5-1,3-1.8,4.4-2.4
		c1.4-0.6,2.7-0.9,3.9-0.9c0.6,0,1.2,0,1.8,0c0.6,0,1.3,0,1.9,0.1c0.6,0.1,1.2,0.2,1.8,0.3c0.6,0.1,1.1,0.4,1.6,0.7
		c0.2,0.2,0.5,0.5,0.8,0.9c0.3,0.5,0.6,1,0.9,1.5c0.3,0.6,0.5,1.1,0.7,1.7c0.2,0.6,0.3,1,0.3,1.3c0,0.9-0.2,2.1-0.6,3.5
		c-0.4,1.9-0.8,3.5-1.2,5c-0.4,1.5-0.5,3.1-0.5,4.7c0,0.9,0.1,1.8,0.4,2.8c0.3,1,0.7,1.8,1.3,2.6c0.5,0.8,1.2,1.4,2,1.9
		c0.8,0.5,1.7,0.7,2.7,0.7c1.6,0,3.3-0.3,5-1c1.7-0.7,3.5-1.6,5.2-2.8c1.8-1.2,3.5-2.6,5.2-4.1c1.7-1.6,3.5-3.2,5.1-5
		c0.1-0.2,0.4-0.4,0.7-0.8c0.3-0.4,0.7-0.8,1-1.2c0.4-0.4,0.7-0.7,1.1-1c0.3-0.3,0.6-0.5,0.8-0.5
		C791.3,292.9,791.6,293.5,791.6,294.6z M755.8,291.3c0-0.5,0-1-0.1-1.7c-0.1-0.7-0.2-1.2-0.5-1.6c-0.3-0.4-0.7-0.6-1.1-0.6
		c-0.4,0-0.9,0-1.3,0c-0.9,0-1.8,0.1-2.7,0.4c-0.9,0.3-1.7,0.7-2.6,1.2c-0.8,0.5-1.6,1.1-2.4,1.8c-0.8,0.7-1.5,1.4-2.2,2.2
		c-0.6,0.6-1.3,1.4-2,2.3c-0.7,0.9-1.4,1.9-2,3c-0.7,1.1-1.3,2.2-1.9,3.4c-0.6,1.2-1.2,2.4-1.6,3.5c-0.5,1.2-0.8,2.3-1.1,3.4
		c-0.3,1.1-0.4,2.1-0.4,3c0,0.3,0,0.6,0.1,1.1s0.2,0.9,0.3,1.3c0.1,0.4,0.3,0.8,0.6,1.1s0.6,0.4,0.9,0.4c1.2,0,2.8-0.4,4.6-1.2
		c2.5-1.1,4.8-2.5,6.9-4.4s3.8-4,5.2-6.5C754.7,299.6,755.8,295.5,755.8,291.3z"/>
	<path d="M827.7,292.9c0,0.4-0.1,0.9-0.4,1.4c-0.2,0.5-0.6,1.1-1,1.6c-0.4,0.6-0.9,1.1-1.4,1.7c-0.5,0.6-1,1.1-1.5,1.7
		c-0.4,0.5-0.8,0.9-1.3,1.4c-0.5,0.5-1,1-1.5,1.6c-0.6,0.6-1.3,1.2-2,2c-0.8,0.8-1.7,1.7-2.7,2.7c-0.9,0.9-2,1.9-3.1,2.9
		c-1.1,1-2.3,2-3.5,3s-2.3,1.9-3.4,2.8s-2.1,1.7-2.9,2.3c-1.9,1.6-3.8,3.1-5.5,4.5c-1.7,1.4-3.5,2.7-5.1,3.8c-3.4,2.3-6,3.4-8,3.4
		c-0.7,0-1.4-0.2-2.3-0.5c-0.9-0.3-1.4-0.8-1.4-1.4c0-1.7,0.7-3.1,2-4.1c1.3-0.9,3.3-2,6-3.1c2.7-1.1,4.7-2.1,6-3.1
		c1.3-1,2-2.4,2-4.2c0-0.9-0.9-2.7-2.8-5.4c-0.9-1.4-1.7-2.6-2.4-3.8c-0.7-1.1-1.3-2.2-1.8-3.1c-1-1.9-1.5-3.8-1.5-5.9
		c0-1.8,0.3-3.7,1-5.7c0.3-1.1,0.8-2.3,1.5-3.4c0.7-1.1,1.5-2.2,2.3-3.1c0.8-0.9,1.7-1.6,2.5-2.2c0.9-0.5,1.6-0.8,2.3-0.8
		c2.4,0,3.5,1.4,3.5,4.2c0,1.1-0.4,2.1-1.2,3.1c-0.4,0.5-0.8,1-1.4,1.5c-0.5,0.5-1.2,1.1-1.8,1.7c-0.7,0.6-1.2,1.1-1.7,1.5
		c-0.5,0.4-0.9,0.8-1.1,1.1c0,1.4,0.4,3,1.3,4.9c0.5,0.9,1,1.9,1.6,3c0.6,1.1,1.3,2.2,2.1,3.5c0.8,1.2,1.4,2.3,2,3.3
		c0.5,1,0.9,1.7,1.2,2.2c0,0.1,0.2,0.2,0.4,0.2c0.4,0,1-0.3,2-0.8c0.9-0.5,2-1.3,3.3-2.2c1.3-0.9,2.7-2,4.2-3.2
		c1.5-1.2,3-2.5,4.5-3.9c1.6-1.4,2.8-2.6,3.9-3.7c1-1,2-2,2.9-2.9c0.9-0.9,1.6-1.6,2-2.1c0.4-0.5,0.7-0.7,0.7-0.7
		c0.2,0,0.4,0.1,0.6,0.2c0.2,0.2,0.4,0.4,0.5,0.6c0.1,0.3,0.3,0.5,0.3,0.8C827.6,292.4,827.7,292.7,827.7,292.9z"/>
	<path d="M879.9,294.6c0,0.3,0,0.7-0.1,1.1s-0.2,0.9-0.3,1.3c-0.1,0.5-0.3,0.9-0.5,1.3c-0.2,0.4-0.4,0.7-0.5,1
		c-0.2,0.2-0.4,0.5-0.7,0.9c-0.3,0.4-0.7,0.8-1,1.2c-0.4,0.4-0.8,0.9-1.2,1.3c-0.4,0.5-0.9,0.9-1.4,1.3c-1.7,1.5-3.3,3-4.9,4.4
		c-1.6,1.4-3.2,2.7-4.9,3.8s-3.5,2-5.3,2.6c-1.8,0.7-3.8,1-6,0.9c-1,0-2-0.2-3-0.5c-1-0.4-2-0.9-2.8-1.5c-0.9-0.7-1.6-1.5-2.3-2.4
		c-0.6-0.9-1.1-2-1.4-3.1c-0.8,0.8-1.6,1.6-2.5,2.5c-0.9,0.9-1.7,1.7-2.7,2.6c-0.9,0.9-1.9,1.7-2.9,2.6c-1,0.8-2,1.6-3.1,2.3
		c-0.6,0.4-1.3,0.8-2.1,1.2c-0.8,0.4-1.7,0.8-2.6,1.2c-0.9,0.4-1.8,0.7-2.7,0.9c-0.9,0.2-1.7,0.3-2.4,0.3c-1.1,0-2-0.3-2.8-1
		c-0.8-0.7-1.4-1.5-2-2.5c-0.5-1-0.9-2.1-1.2-3.2c-0.3-1.1-0.4-2.1-0.4-3c0-1.8,0.3-3.6,0.8-5.4c0.5-1.8,1.2-3.7,2-5.4
		c0.8-1.8,1.7-3.4,2.7-5c1-1.6,2-3,3-4.2c1-1.3,2.2-2.6,3.6-3.8c1.4-1.3,2.8-2.4,4.3-3.4c1.5-1,3-1.8,4.4-2.4
		c1.4-0.6,2.7-0.9,3.9-0.9c0.6,0,1.2,0,1.8,0c0.6,0,1.3,0,1.9,0.1c0.6,0.1,1.2,0.2,1.8,0.3c0.6,0.1,1.1,0.4,1.6,0.7
		c0.2,0.2,0.5,0.5,0.8,0.9c0.3,0.5,0.6,1,0.9,1.5c0.3,0.6,0.5,1.1,0.7,1.7c0.2,0.6,0.3,1,0.3,1.3c0,0.9-0.2,2.1-0.6,3.5
		c-0.4,1.9-0.8,3.5-1.2,5c-0.4,1.5-0.5,3.1-0.5,4.7c0,0.9,0.1,1.8,0.4,2.8c0.3,1,0.7,1.8,1.3,2.6c0.5,0.8,1.2,1.4,2,1.9
		c0.8,0.5,1.7,0.7,2.7,0.7c1.6,0,3.3-0.3,5-1c1.7-0.7,3.5-1.6,5.2-2.8c1.8-1.2,3.5-2.6,5.2-4.1c1.7-1.6,3.5-3.2,5.1-5
		c0.1-0.2,0.4-0.4,0.7-0.8c0.3-0.4,0.7-0.8,1-1.2c0.4-0.4,0.7-0.7,1.1-1c0.3-0.3,0.6-0.5,0.8-0.5
		C879.6,292.9,879.9,293.5,879.9,294.6z M844.1,291.3c0-0.5,0-1-0.1-1.7c-0.1-0.7-0.2-1.2-0.5-1.6c-0.3-0.4-0.7-0.6-1.1-0.6
		c-0.4,0-0.9,0-1.3,0c-0.9,0-1.8,0.1-2.7,0.4c-0.9,0.3-1.7,0.7-2.6,1.2c-0.8,0.5-1.6,1.1-2.4,1.8c-0.8,0.7-1.5,1.4-2.2,2.2
		c-0.6,0.6-1.3,1.4-2,2.3c-0.7,0.9-1.4,1.9-2,3c-0.7,1.1-1.3,2.2-1.9,3.4c-0.6,1.2-1.2,2.4-1.6,3.5c-0.5,1.2-0.8,2.3-1.1,3.4
		c-0.3,1.1-0.4,2.1-0.4,3c0,0.3,0,0.6,0.1,1.1s0.2,0.9,0.3,1.3c0.1,0.4,0.3,0.8,0.6,1.1s0.6,0.4,0.9,0.4c1.2,0,2.8-0.4,4.6-1.2
		c2.5-1.1,4.8-2.5,6.9-4.4s3.8-4,5.2-6.5C843.1,299.6,844.1,295.5,844.1,291.3z"/>
	<path d="M965.5,266.7c0,1.2-0.3,2.2-1,3.1c-0.7,0.8-1.6,1.3-2.8,1.3c-0.5,0-1-0.2-1.5-0.6c-0.6-0.4-1.1-0.8-1.5-1.2
		c-0.4-0.4-0.9-0.8-1.5-1.1c-0.6-0.3-1.2-0.5-1.8-0.5c-3.3,0-7.5,1.1-12.7,3.3c-2.6,1.1-5,2.4-7.3,3.8s-4.5,3-6.6,4.8
		c-2.2,1.8-4.2,3.8-6.2,6c-1.9,2.2-3.7,4.4-5.1,6.5c-1.4,2-2.4,4.3-3.2,7.1c-0.7,2.7-1.1,5.4-1.1,8c0,1.2,0.6,2.5,1.9,3.9
		c1.3,1.3,2.6,2.1,3.9,2.5c1.6,0.4,3.6,0.6,5.8,0.6c1.7,0,3.5-0.2,5.4-0.6c1.9-0.4,3.9-1,5.8-1.8c1.9-0.8,3.8-1.6,5.6-2.6
		c1.8-1,3.5-2,5-3.1c0.5-0.4,1.1-0.9,1.7-1.5s1.2-1.3,1.8-2c0.6-0.8,1.2-1.5,1.6-2.2c0.4-0.7,0.8-1.3,1.1-1.9c0.2-0.3,0.3-0.6,0.3-1
		c0-0.4-0.1-0.9-0.3-1.5c-0.2-0.6-0.3-1.1-0.3-1.5c0-1,1.2-1.5,3.6-1.5c0.8,0,1.9,0.6,3.4,1.7c1.5,1.1,2.3,2,2.3,2.6
		c0,0.1-0.8,1.8-2.5,5.1c-0.8,1.7-1.5,2.9-1.9,3.9s-0.7,1.5-0.8,1.6c-0.5,1-0.9,2.2-1.4,3.5c-0.5,1.3-0.9,2.7-1.4,4.3
		c-0.9,3.2-1.4,5.5-1.4,6.8c-0.1,0.3,0,0.6,0.1,0.9c0.1,0.3,0.3,0.5,0.4,0.8c0.1,0.2,0.3,0.4,0.4,0.6c0.1,0.2,0.2,0.3,0.2,0.3
		c0,0.6-0.1,1.2-0.3,1.8c-0.2,0.5-0.5,1-0.9,1.4c-0.4,0.4-0.9,0.7-1.4,1c-0.5,0.2-1.1,0.4-1.8,0.4c-1.4,0-2.3-0.5-2.8-1.4
		c-0.5-1-0.7-2.2-0.7-3.8c0-0.4,0-0.8,0.1-1.2c0-0.4,0.1-0.8,0.1-1.2c0.2-0.8,0.4-1.8,0.6-2.8c0.1-0.5,0.3-1,0.4-1.3
		c0.1-0.4,0.2-0.7,0.2-1c0.4-1.5,0.6-2.5,0.6-3.1c0-0.3-0.1-0.4-0.2-0.4c-0.6,0-2.3,0.7-5.3,2.2c-1.5,0.7-2.7,1.3-3.6,1.7
		c-0.9,0.4-1.5,0.7-1.8,0.8c-4.7,1.9-9.1,2.9-13.2,2.9c-2.7,0-5.5-0.5-8.4-1.6c-3-1.1-5.5-2.7-7.6-4.7c-2-2.1-3.1-4.5-3.1-7.2
		c0-7.9,3.7-16.2,11-24.6c3.2-3.7,6.4-6.9,9.4-9.4c3-2.5,6.7-4.9,11-7.1c0.7-0.4,1.5-0.8,2.4-1.1s1.9-0.8,2.9-1.2
		c2.2-0.8,4.3-1.6,6.5-2.2c2.1-0.6,4.1-1,6-1.3c1.2-0.2,2.9-0.2,5.2-0.2c0.8,0,1.6,0.1,2.5,0.5c0.8,0.3,1.5,0.8,2.1,1.4
		c0.6,0.6,1.1,1.3,1.5,2.1C965.3,265,965.5,265.8,965.5,266.7z"/>
	<path d="M1012,289.5c0,0.2,0,0.4,0,0.7c0,0.3-0.1,0.6-0.2,0.9c-0.1,0.3-0.2,0.6-0.4,0.8s-0.3,0.4-0.6,0.4c-0.2,0-0.4,0-0.8,0
		c-0.4,0-0.8,0-1.2-0.1c-0.4,0-0.8,0-1.2-0.1c-0.4,0-0.6,0-0.8,0c-5.1,0.3-9.4,2.2-12.8,5.6c-3.4,3.4-6.2,7.8-8.7,13.4
		c-0.5,1.2-0.9,2.3-1.3,3.6c-0.4,1.2-0.9,2.5-1.3,3.9c-0.2,0.8-0.4,1.4-0.5,2c-0.1,0.6-0.2,1.2-0.5,1.8c-0.1,0.2-0.3,0.4-0.7,0.6
		c-0.4,0.2-0.9,0.4-1.3,0.5c-0.5,0.2-1,0.3-1.4,0.4s-0.8,0.2-0.9,0.2c-1.8,0.1-2.9-1.8-3.1-5.8c-0.1-1.1-0.1-2-0.1-2.9
		c0-0.9,0-1.7,0.1-2.5c0.1-0.8,0.1-1.7,0.2-2.6c0.1-0.9,0.2-1.9,0.3-3c0.1-1.4,0.3-3,0.5-4.8c0.2-1.8,0.4-3.7,0.6-5.5
		c0.2-1.9,0.5-3.6,0.8-5.3c0.3-1.7,0.5-3.1,0.8-4.2c0.3-1.3,0.7-2.2,1.2-2.8c0.5-0.6,1.3-1,2.3-1c0.3,0,0.6,0.1,0.9,0.2
		c0.3,0.1,0.6,0.3,0.8,0.6s0.5,0.5,0.6,0.8c0.2,0.3,0.3,0.5,0.3,0.7c0,0.7,0,1.4,0,2.2c-0.1,0.8-0.1,1.6-0.3,2.5s-0.3,1.7-0.5,2.6
		c-0.2,0.9-0.4,1.7-0.6,2.5c-0.4,1.5-0.7,2.8-0.9,3.9c-0.2,1.1-0.4,2.1-0.5,3.2c-0.1,1-0.3,2.1-0.4,3.3c-0.1,1.2-0.3,2.6-0.5,4.3
		c0.5-1,0.9-1.9,1.2-2.6s0.6-1.4,0.9-1.9c0.3-0.5,0.5-1,0.7-1.5c0.2-0.4,0.5-0.9,0.7-1.3c0.3-0.5,0.6-1,0.9-1.5
		c0.3-0.6,0.7-1.2,1.2-2c1.9-3.1,3.9-5.7,6-7.6s4.2-3.4,6.2-4.2c2.3-1.1,4.1-1.6,5.5-1.7c0.7,0,1.5,0,2.5,0.1c1,0.1,1.9,0.3,2.8,0.6
		c0.9,0.3,1.6,0.7,2.3,1.1C1011.7,288.3,1012,288.9,1012,289.5z"/>
	<path d="M1075.1,294.6c0,0.3,0,0.7-0.1,1.1s-0.2,0.9-0.3,1.3s-0.3,0.9-0.5,1.3c-0.2,0.4-0.4,0.7-0.5,1c-0.2,0.2-0.4,0.5-0.7,0.9
		c-0.3,0.4-0.6,0.8-1,1.2c-0.4,0.4-0.8,0.9-1.2,1.3c-0.4,0.5-0.9,0.9-1.4,1.3c-1.7,1.5-3.3,3-4.9,4.4c-1.6,1.4-3.2,2.7-4.9,3.8
		s-3.5,2-5.3,2.6s-3.8,1-6,0.9c-1,0-2-0.2-3-0.5c-1-0.4-2-0.9-2.8-1.5c-0.9-0.7-1.6-1.5-2.3-2.4s-1.1-2-1.4-3.1
		c-0.8,0.8-1.6,1.6-2.5,2.5c-0.9,0.9-1.7,1.7-2.7,2.6c-0.9,0.9-1.9,1.7-2.9,2.6c-1,0.8-2,1.6-3.1,2.3c-0.6,0.4-1.3,0.8-2.1,1.2
		c-0.8,0.4-1.7,0.8-2.6,1.2c-0.9,0.4-1.8,0.7-2.7,0.9c-0.9,0.2-1.7,0.3-2.4,0.3c-1.1,0-2-0.3-2.8-1c-0.8-0.7-1.4-1.5-2-2.5
		c-0.5-1-0.9-2.1-1.2-3.2s-0.4-2.1-0.4-3c0-1.8,0.3-3.6,0.8-5.4s1.2-3.7,2-5.4c0.8-1.8,1.7-3.4,2.7-5c1-1.6,2-3,3-4.2
		c1-1.3,2.2-2.6,3.6-3.8c1.4-1.3,2.8-2.4,4.3-3.4c1.5-1,3-1.8,4.4-2.4c1.4-0.6,2.7-0.9,3.9-0.9c0.6,0,1.2,0,1.8,0s1.3,0,1.9,0.1
		c0.6,0.1,1.2,0.2,1.8,0.3c0.6,0.1,1.1,0.4,1.6,0.7c0.2,0.2,0.5,0.5,0.8,0.9c0.3,0.5,0.6,1,0.9,1.5s0.5,1.1,0.7,1.7
		c0.2,0.6,0.3,1,0.3,1.3c0,0.9-0.2,2.1-0.6,3.5c-0.4,1.9-0.8,3.5-1.2,5c-0.4,1.5-0.5,3.1-0.5,4.7c0,0.9,0.1,1.8,0.4,2.8
		c0.3,1,0.7,1.8,1.3,2.6c0.5,0.8,1.2,1.4,2,1.9c0.8,0.5,1.7,0.7,2.7,0.7c1.6,0,3.3-0.3,5-1c1.7-0.7,3.5-1.6,5.2-2.8
		c1.8-1.2,3.5-2.6,5.2-4.1c1.7-1.6,3.5-3.2,5.1-5c0.1-0.2,0.4-0.4,0.7-0.8c0.3-0.4,0.7-0.8,1-1.2c0.4-0.4,0.7-0.7,1.1-1
		c0.3-0.3,0.6-0.5,0.8-0.5C1074.8,292.9,1075.1,293.5,1075.1,294.6z M1039.3,291.3c0-0.5,0-1-0.1-1.7c-0.1-0.7-0.2-1.2-0.5-1.6
		c-0.3-0.4-0.7-0.6-1.1-0.6c-0.4,0-0.9,0-1.3,0c-0.9,0-1.8,0.1-2.7,0.4c-0.9,0.3-1.7,0.7-2.6,1.2c-0.8,0.5-1.6,1.1-2.4,1.8
		c-0.8,0.7-1.5,1.4-2.2,2.2c-0.6,0.6-1.3,1.4-2,2.3c-0.7,0.9-1.4,1.9-2,3c-0.7,1.1-1.3,2.2-1.9,3.4c-0.6,1.2-1.2,2.4-1.6,3.5
		c-0.5,1.2-0.8,2.3-1.1,3.4c-0.3,1.1-0.4,2.1-0.4,3c0,0.3,0,0.6,0.1,1.1c0.1,0.4,0.2,0.9,0.3,1.3c0.1,0.4,0.3,0.8,0.6,1.1
		s0.6,0.4,0.9,0.4c1.2,0,2.8-0.4,4.6-1.2c2.5-1.1,4.8-2.5,6.9-4.4s3.8-4,5.2-6.5C1038.3,299.6,1039.3,295.5,1039.3,291.3z
		 M1057.1,266.1c0,0.8-0.2,1.3-0.5,1.6c-0.3,0.3-1,0.4-2,0.4c-0.7,0-2.1-0.1-4.2-0.4c-1.1-0.1-2-0.2-2.7-0.2
		c-0.7-0.1-1.2-0.1-1.6-0.1c-1.3,0-2.7,0.1-4.4,0.2c-1.7,0.1-3.4,0.2-5.2,0.3s-3.5,0.2-5.2,0.3c-1.7,0.1-3.2,0.2-4.5,0.2
		c-0.2,0-0.6,0-1.2,0c-0.6,0-1.3-0.1-2.2-0.1c-0.9-0.1-1.6-0.1-2.2-0.1c-0.6,0-1,0-1.2,0c-0.8,0-1.4-0.3-1.8-0.8
		c-0.4-0.5-0.6-1.1-0.6-1.9c0-0.6,0.2-1.2,0.7-1.7c0.5-0.5,1.1-0.7,1.7-0.7c0.1,0,0.4,0,0.9-0.1c0.5,0,1.1-0.1,1.8-0.1
		c0.8-0.1,1.5-0.1,2-0.1c0.6,0,1.1-0.1,1.4-0.1c0.5,0,1.1,0,1.7,0c0.7,0,1.5,0.1,2.3,0.1c0.9,0.1,1.7,0.1,2.5,0.1c0.8,0,1.6,0,2.4,0
		c1.2,0,3-0.1,5.4-0.4c1.2-0.1,2.3-0.2,3.2-0.2c0.9-0.1,1.7-0.1,2.4-0.1c0.4,0,1.8,0.1,4.1,0.4c1.2,0.1,2.1,0.2,2.8,0.3
		c0.7,0.1,1.2,0.1,1.4,0.1c0.7,0,1.3,0.3,1.7,0.8C1056.9,264.4,1057.1,265.1,1057.1,266.1z"/>
	<path d="M1127.3,290.2c0,0.3-0.1,0.7-0.2,1c-0.2,0.3-0.4,0.6-0.6,0.9c-0.3,0.3-0.5,0.6-0.9,0.8c-0.3,0.3-0.6,0.5-0.9,0.8
		c-0.8,0.7-1.8,1.4-2.9,2c-1.1,0.6-2.2,1.2-3.4,1.6s-2.3,0.8-3.5,1.1c-1.2,0.3-2.3,0.4-3.3,0.4c-0.7,0-1.4-0.1-2.3-0.2
		c-0.9-0.1-1.7-0.3-2.6-0.6s-1.7-0.5-2.6-0.8c-0.8-0.3-1.5-0.6-2.1-1c-0.1,0.2-0.3,0.6-0.6,1.2c-0.3,0.7-0.7,1.5-1.1,2.5
		c-0.5,1-1,2.2-1.6,3.5c-0.6,1.3-1.2,2.7-1.8,4.1c-1.3,2.9-2.6,5.6-3.8,8c-1.2,2.4-2.3,4.5-3.3,6.4c-0.5,0.9-1,1.7-1.4,2.3
		c-0.5,0.6-0.9,1.1-1.3,1.4s-0.7,0.6-1.1,0.7c-0.3,0.1-0.6,0.2-0.8,0.2c-0.6,0-1.2-0.2-1.7-0.5c-0.5-0.3-1.1-0.9-1.7-1.7
		c0.1-0.3,0.1-0.6,0.1-0.9s0-0.5,0-0.7c0-1.2-0.4-2.9-1.1-5.1c-0.7-2.2-1.9-4.9-3.4-8.1c-0.8-1.6-1.5-3.2-2.2-4.8
		c-0.7-1.7-1.3-3.3-1.9-4.9s-1-3.1-1.3-4.5c-0.3-1.4-0.5-2.6-0.5-3.6c0-0.7,0.1-1.5,0.3-2.3c0.2-0.8,0.4-1.5,0.8-2.2
		c0.3-0.7,0.8-1.2,1.3-1.6c0.5-0.4,1.2-0.6,2-0.6c1.1,0,2,0.3,2.7,1s1,1.6,1,2.8c0,0.4,0,0.8-0.1,1.2c-0.1,0.4-0.2,0.9-0.3,1.3
		c-0.1,0.4-0.2,0.9-0.3,1.3c-0.1,0.4-0.1,0.8-0.1,1.2c0,0.4,0,1,0.1,1.8c0.1,0.8,0.2,1.7,0.4,2.8c0.2,1,0.5,2.1,0.8,3.3
		c0.3,1.2,0.8,2.3,1.2,3.3c0.5,1,0.9,2.1,1.5,3.5c0.5,1.3,1,2.6,1.5,3.7c0.5,1.2,0.9,2.2,1.3,3c0.4,0.8,0.7,1.2,0.9,1.2
		c0.1,0,0.4-0.3,0.7-0.8c0.3-0.5,0.7-1.2,1.1-2.1s0.9-1.9,1.4-3c0.5-1.1,1-2.3,1.5-3.5c0.5-1.2,1-2.4,1.5-3.6
		c0.5-1.2,0.9-2.3,1.3-3.3c0.3-0.8,0.6-1.6,1-2.5c0.3-0.8,0.6-1.6,0.9-2.4c0.3-0.8,0.6-1.5,0.9-2.2c0.3-0.7,0.6-1.3,0.9-1.8
		c0.4-0.7,0.9-1.3,1.4-1.6c0.6-0.4,1.2-0.5,2.1-0.5c0.4,0,0.7,0.1,1.1,0.2c0.3,0.2,0.7,0.3,1,0.6c0.3,0.2,0.6,0.4,0.9,0.7
		c0.3,0.3,0.6,0.5,0.9,0.6c0.2,0.1,0.6,0.3,1.1,0.6c0.5,0.3,1,0.5,1.6,0.8c0.6,0.3,1.2,0.5,1.9,0.7s1.3,0.3,1.9,0.3
		c1.2,0,2.2-0.1,3.1-0.3c0.9-0.2,1.8-0.4,2.6-0.6c0.8-0.3,1.6-0.5,2.3-0.9c0.7-0.3,1.4-0.6,2.2-0.9c1.1-0.4,1.9-0.8,2.5-1
		c0.6-0.2,1.2-0.4,1.7-0.4C1127,289.5,1127.3,289.7,1127.3,290.2z"/>
	<path d="M1149.6,266.9c0,0.8-0.2,1.3-0.5,1.6c-0.3,0.3-1,0.4-2,0.4c-0.7,0-2.1-0.1-4.2-0.4c-1.1-0.1-2-0.2-2.7-0.2
		c-0.7-0.1-1.2-0.1-1.6-0.1c-1.3,0-2.7,0.1-4.4,0.2c-1.7,0.1-3.4,0.2-5.2,0.3s-3.5,0.2-5.2,0.3c-1.7,0.1-3.2,0.2-4.5,0.2
		c-0.2,0-0.6,0-1.2,0c-0.6,0-1.3-0.1-2.2-0.1c-0.9-0.1-1.6-0.1-2.2-0.1c-0.6,0-1,0-1.2,0c-0.8,0-1.4-0.3-1.8-0.8
		c-0.4-0.5-0.6-1.1-0.6-1.9c0-0.6,0.2-1.2,0.7-1.7c0.5-0.5,1.1-0.7,1.8-0.7c0.1,0,0.4,0,0.9-0.1c0.5,0,1.1-0.1,1.8-0.1
		c0.8-0.1,1.5-0.1,2-0.1c0.6,0,1.1-0.1,1.4-0.1c0.5,0,1.1,0,1.7,0c0.7,0,1.5,0.1,2.3,0.1c0.9,0.1,1.7,0.1,2.5,0.1c0.8,0,1.6,0,2.4,0
		c1.2,0,3-0.1,5.4-0.4c1.2-0.1,2.3-0.2,3.2-0.2s1.7-0.1,2.4-0.1c0.4,0,1.8,0.1,4.1,0.4c1.2,0.1,2.1,0.2,2.8,0.3
		c0.7,0.1,1.2,0.1,1.4,0.1c0.7,0,1.3,0.3,1.7,0.8C1149.3,265.2,1149.6,265.9,1149.6,266.9z M1163,291.9c0,0.6-0.2,1.4-0.8,2.6
		c-0.5,1.2-1.3,2.5-2.3,4s-2.1,3.1-3.4,4.8c-1.3,1.7-2.6,3.4-4,5c-0.7,0.8-1.5,1.7-2.4,2.6s-1.7,1.8-2.7,2.8s-1.9,1.8-2.8,2.7
		c-0.9,0.9-1.9,1.7-2.8,2.5c-0.8,0.6-1.6,1.2-2.6,1.8c-0.9,0.5-1.9,1-2.8,1.4c-1,0.4-1.9,0.7-2.8,1c-0.9,0.2-1.7,0.3-2.4,0.3
		c-2.2,0-4-0.5-5.4-1.4c-1.4-1-2.6-2.3-3.4-4c-0.8-1.7-1.4-3.8-1.8-6.2s-0.5-5-0.5-7.8c0-0.3,0-0.8,0-1.3s0-1.1,0.1-1.8
		c0-0.7,0.1-1.3,0.1-2.1c0.1-0.7,0.1-1.4,0.2-2.2c0.2-1.4,0.3-2.7,0.5-3.7c0.2-1,0.3-1.9,0.5-2.5c0.4-1.3,1.2-2.4,2.4-3.3
		c1.2-1,2.5-1.5,3.9-1.5c0.7,0,1.1,0.7,1.1,2.1c0,0.9-0.1,1.9-0.3,3.1c-0.2,1.2-0.4,2.3-0.5,3.4c-0.3,2.1-0.6,4-0.8,5.7
		c-0.2,1.7-0.2,3.1-0.2,4.4c0,0.6,0,1.3,0,2.1c0,0.8,0.1,1.7,0.2,2.6s0.2,1.8,0.4,2.7c0.2,0.9,0.5,1.7,0.8,2.5
		c0.3,0.7,0.8,1.3,1.3,1.8c0.5,0.5,1.2,0.7,2,0.7c1,0,2.2-0.3,3.5-0.8c1.4-0.5,2.7-1.2,3.9-2.1c1.5-1.1,2.9-2.3,4.4-3.6
		c1.4-1.3,2.8-2.6,4.1-4s2.6-2.7,3.8-4c1.2-1.3,2.3-2.5,3.2-3.7c0.5-0.6,1.1-1.3,1.7-2c0.6-0.7,1.1-1.4,1.7-2.1
		c0.5-0.7,1-1.3,1.5-1.9c0.5-0.6,0.9-1.1,1.2-1.6c0-0.1,0.1-0.1,0.1-0.3c0.1-0.1,0.1-0.2,0.2-0.4s0.2-0.2,0.2-0.3
		c0.1-0.1,0.2-0.1,0.2-0.1c0.4,0,0.7,0.3,0.8,0.9C1162.9,291.1,1163,291.5,1163,291.9z"/>
	<path d="M1196.8,286.6c0,1-0.3,1.7-0.8,2.3c-0.5,0.5-1.2,1-1.8,1.4c-0.9,0.4-1.9,0.8-3,1.1c-1.1,0.3-2.2,0.6-3.3,0.9
		c-1.1,0.3-2.3,0.5-3.4,0.6c-1.2,0.2-2.3,0.3-3.3,0.4c-1.1,0.1-2.3,0.2-3.6,0.3c-1.3,0.1-2.5,0.2-3.7,0.3s-2.3,0.3-3.3,0.4
		c-1,0.2-1.8,0.4-2.4,0.6c-0.6,2.4-1.2,4.8-1.8,7c-0.6,2.2-1.2,4.4-1.6,6.6c-0.1,0.5-0.2,1.3-0.4,2.3c-0.2,1-0.3,2.1-0.5,3.2
		c-0.2,1.1-0.3,2.2-0.4,3.1c-0.1,1-0.2,1.7-0.2,2.1c0,1.1,0.2,1.9,0.5,2.5c0.3,0.5,0.7,1,1.1,1.3c0.4,0.3,0.8,0.6,1.1,0.9
		c0.3,0.3,0.5,0.7,0.5,1.3c0,0.4-0.2,0.7-0.5,1.1c-0.4,0.3-0.8,0.7-1.3,0.9c-0.5,0.3-1.1,0.5-1.6,0.6c-0.6,0.1-1.1,0.2-1.5,0.2
		c-0.8,0-1.5-0.2-2.1-0.6c-0.6-0.4-1.1-1-1.6-1.7c-0.4-0.7-0.8-1.5-1-2.4s-0.4-1.8-0.4-2.7c0-1.2,0.1-2.6,0.3-4
		c0.2-1.4,0.5-2.8,0.8-4.3c0.3-1.5,0.7-3,1-4.5c0.4-1.5,0.7-3.1,1-4.6c0.1-0.6,0.3-1.3,0.4-2c0.1-0.7,0.3-1.3,0.4-1.9
		c0.1-0.6,0.2-1.1,0.3-1.5c0.1-0.4,0.1-0.6,0.1-0.7c0-0.4-0.2-0.8-0.5-1c-0.3-0.2-0.7-0.3-1.1-0.3c-0.3,0-0.8,0-1.4,0.1
		c-0.6,0.1-1.3,0.1-2,0.2s-1.4,0.1-2,0.2s-1.1,0.1-1.4,0.1c-1,0-1.8-0.1-2.5-0.2s-1.2-0.3-1.6-0.7c-0.4-0.3-0.7-0.8-0.9-1.3
		c-0.2-0.6-0.3-1.3-0.3-2.2c0-0.4,0.2-0.7,0.5-0.9c0.3-0.2,0.8-0.4,1.3-0.5c0.5-0.1,1-0.1,1.6-0.2c0.6,0,1.1,0,1.5,0
		c0.3,0,0.9,0,1.7-0.1c0.8-0.1,1.6-0.1,2.5-0.2c0.9-0.1,1.7-0.2,2.5-0.2c0.8-0.1,1.4-0.1,1.7-0.1c0.2,0,0.3,0,0.6,0
		c0.2,0,0.4-0.1,0.7-0.2c0.2-0.1,0.4-0.3,0.6-0.6c0.2-0.3,0.3-0.7,0.5-1.2c0.2-0.8,0.4-1.8,0.7-2.9c0.3-1.1,0.5-2.3,0.8-3.4
		s0.6-2.3,0.8-3.4c0.3-1.1,0.5-2,0.7-2.8c0.2-0.8,0.4-1.6,0.6-2.4c0.2-0.9,0.3-1.7,0.5-2.6c0.1-0.9,0.3-1.7,0.5-2.5s0.4-1.5,0.7-2.2
		c0.6-1.4,1.5-2.1,2.9-2.1c2,0,3,1.1,3,3.3c0,1.4-0.3,2.9-0.9,4.7c-1.3,4.1-2.2,7.4-2.9,10.1c-0.6,2.6-0.9,4.4-0.9,5.3
		c0,1,0.5,1.5,1.5,1.5c1.2,0,2.3,0,3.4-0.1c1.1,0,2.1-0.1,3.2-0.2c1.1-0.1,2.2-0.2,3.4-0.3c1.2-0.1,2.6-0.3,4.1-0.4
		c1.1-0.1,2.1-0.3,3.1-0.5c1-0.2,1.9-0.4,2.7-0.5c0.8-0.2,1.6-0.3,2.2-0.5c0.6-0.2,1.2-0.3,1.6-0.3c0.3,0,0.6-0.1,0.9-0.1
		s0.5-0.1,0.7,0c0.2,0,0.4,0.1,0.5,0.3C1196.7,285.9,1196.8,286.2,1196.8,286.6z"/>
	<path d="M1234.8,294.2c0,0.4-0.3,1.1-0.9,2.1c-1.4,2-3,4-4.7,6c-1.7,2-3.6,3.9-5.5,5.7c-1.9,1.8-4,3.5-6.1,5.1s-4.2,2.9-6.4,4.1
		c-2.1,1.1-4.3,2-6.4,2.6c-2.1,0.6-4.2,0.9-6.2,0.9c-4.3,0-7.6-1.2-10-3.7c-2.4-2.5-3.6-6.3-3.6-11.3c0-4.2,0.6-8.3,2-12.3
		c1.3-4,3.5-7.8,6.7-11.5c0.6-0.6,1.3-1.3,2-1.8c0.7-0.6,1.5-1.1,2.3-1.6c0.8-0.5,1.7-0.8,2.5-1.1s1.8-0.4,2.6-0.5
		c0.2,0,0.5,0,0.9,0.1c0.4,0.1,0.8,0.1,1.2,0.3c0.4,0.1,0.8,0.3,1.2,0.5s0.7,0.4,1,0.7c0.8,0.9,1.3,1.7,1.8,2.7
		c0.4,0.9,0.7,1.9,0.7,3c0.1,1.2-0.1,2.4-0.4,3.6c-0.3,1.2-0.9,2.4-1.7,3.7c-0.8,1.2-1.8,2.5-3.1,3.9c-1.3,1.3-2.8,2.8-4.7,4.3
		c-1.2,1-2.4,2-3.8,3.2s-3.1,2.4-5.1,3.7c0,2.6,0.8,4.6,2.4,5.9s3.7,2,6.5,2c1.5,0,3.1-0.2,4.6-0.6c1.6-0.4,3.1-0.9,4.6-1.6
		c1.5-0.7,3-1.4,4.4-2.3c1.4-0.8,2.7-1.7,4-2.6c2.3-1.7,4.3-3.3,6.2-5c1.8-1.6,3.7-3.4,5.5-5.2l2.2-2.2c1.3-1.2,2.3-1.7,2.9-1.7
		C1234.6,293.5,1234.8,293.7,1234.8,294.2z M1204,286.2c0-0.4-0.1-0.8-0.2-1.2c-0.1-0.4-0.2-0.7-0.4-1s-0.4-0.5-0.6-0.7
		c-0.2-0.2-0.5-0.3-0.8-0.3c-1.4,0.1-2.8,0.9-4.3,2.6c-1.4,1.6-2.8,3.8-4,6.5c-0.3,0.6-0.6,1.3-0.8,2c-0.2,0.7-0.4,1.5-0.6,2.3
		c-0.2,0.8-0.4,1.5-0.5,2.3c-0.1,0.8-0.3,1.4-0.4,2c1.4-1,2.7-2,3.9-2.9s2.3-1.8,3.3-2.7c0.6-0.6,1.3-1.2,2-1.9s1.3-1.4,1.8-2.2
		c0.5-0.8,1-1.5,1.3-2.3C1203.9,287.9,1204.1,287.1,1204,286.2z"/>
</g>
<g>
	<path d="M779.7,387.2l-3.2-8.6h-12l-3.2,8.6h-2.1l10.4-27.6h1.8l10.3,27.6H779.7z M771.3,364.1c-0.1-0.4-0.3-0.8-0.3-1.1
		c-0.1-0.3-0.2-0.6-0.3-1h-0.1c-0.2,0.8-0.4,1.5-0.6,2.1l-4.6,12.8h10.6L771.3,364.1z"/>
	<path d="M795.5,369.3c-0.6-0.4-1.3-0.6-2.1-0.6c-1.6,0-2.9,0.8-3.9,2.4c-1.1,1.6-1.6,3.9-1.6,6.8v9.3h-1.7v-19.7h1.7v4.4h0.1
		c0.4-1.5,1.2-2.7,2.1-3.5c1-0.8,2.1-1.3,3.4-1.3c0.7,0,1.4,0.1,2,0.3V369.3z"/>
	<path d="M811.2,386.3c-1.5,0.9-3.2,1.3-5.2,1.3c-2.7,0-4.8-0.9-6.5-2.8c-1.6-1.8-2.5-4.3-2.5-7.2c0-3.1,0.9-5.7,2.8-7.7
		c1.8-2,4.2-3,7.1-3c1.5,0,3,0.3,4.4,0.9v2c-1.4-0.9-3-1.3-4.6-1.3c-2.3,0-4.2,0.8-5.6,2.5c-1.4,1.7-2.2,3.8-2.2,6.5
		c0,2.6,0.7,4.6,2,6.2c1.3,1.6,3.1,2.3,5.2,2.3c2,0,3.7-0.5,5.2-1.6V386.3z"/>
	<path d="M829.3,387.2v-11.8c0-2.3-0.4-4-1.3-5.1c-0.8-1.1-2.2-1.6-4-1.6c-1.7,0-3.2,0.7-4.5,2c-1.3,1.3-1.9,3.2-1.9,5.7v10.9h-1.8
		V358h1.8v13h0.1c1.6-2.7,3.8-4,6.8-4c2.1,0,3.8,0.7,4.9,2.1c1.1,1.4,1.7,3.3,1.7,5.9v12.2H829.3z"/>
	<path d="M837.9,362.5c-0.4,0-0.7-0.1-1-0.4c-0.3-0.3-0.4-0.6-0.4-1.1c0-0.4,0.2-0.8,0.5-1c0.3-0.3,0.6-0.4,1-0.4
		c0.4,0,0.7,0.1,1,0.4c0.3,0.3,0.5,0.6,0.5,1c0,0.4-0.1,0.8-0.4,1.1C838.6,362.3,838.3,362.5,837.9,362.5z M837,387.2v-19.7h1.8
		v19.7H837z"/>
	<path d="M852.9,386.9c-0.9,0.4-1.8,0.7-2.6,0.7c-2.9,0-4.4-1.7-4.4-5.2v-13.2h-3.5v-1.6h3.5v-5.1c0.3-0.1,0.6-0.2,0.9-0.3
		c0.3-0.1,0.6-0.2,0.9-0.3v5.7h5.2v1.6h-5.2v13c0,1.4,0.2,2.3,0.6,3c0.4,0.6,1.2,0.9,2.2,0.9c0.7,0,1.5-0.2,2.4-0.7V386.9z"/>
	<path d="M857.2,377.4c0,2.7,0.6,4.8,1.9,6.4c1.3,1.5,3,2.3,5.2,2.3c2.2,0,4.4-0.8,6.5-2.4v1.9c-2,1.5-4.3,2.2-6.8,2.2
		c-2.5,0-4.6-0.9-6.2-2.7c-1.6-1.8-2.3-4.4-2.3-7.7c0-2.9,0.8-5.3,2.5-7.3c1.6-2,3.8-3,6.4-3c2.5,0,4.3,0.9,5.6,2.6
		c1.3,1.7,2,4.1,2,7v0.8H857.2z M870,375.8c-0.1-2.3-0.6-4-1.6-5.3c-1-1.3-2.4-1.9-4.2-1.9c-1.8,0-3.4,0.6-4.6,1.9
		c-1.2,1.2-2,3-2.2,5.3H870z"/>
	<path d="M889.5,386.3c-1.5,0.9-3.2,1.3-5.2,1.3c-2.7,0-4.8-0.9-6.5-2.8c-1.6-1.8-2.5-4.3-2.5-7.2c0-3.1,0.9-5.7,2.8-7.7
		c1.8-2,4.2-3,7.1-3c1.5,0,3,0.3,4.4,0.9v2c-1.4-0.9-3-1.3-4.6-1.3c-2.3,0-4.2,0.8-5.6,2.5c-1.4,1.7-2.2,3.8-2.2,6.5
		c0,2.6,0.7,4.6,2,6.2c1.3,1.6,3.1,2.3,5.2,2.3c2,0,3.7-0.5,5.2-1.6V386.3z"/>
	<path d="M902,386.9c-0.9,0.4-1.8,0.7-2.6,0.7c-2.9,0-4.4-1.7-4.4-5.2v-13.2h-3.5v-1.6h3.5v-5.1c0.3-0.1,0.6-0.2,0.9-0.3
		c0.3-0.1,0.6-0.2,0.9-0.3v5.7h5.2v1.6h-5.2v13c0,1.4,0.2,2.3,0.6,3c0.4,0.6,1.2,0.9,2.2,0.9c0.7,0,1.5-0.2,2.4-0.7V386.9z"/>
	<path d="M928.5,387.2v-3.9h-0.1c-0.6,1.3-1.5,2.4-2.7,3.2c-1.2,0.8-2.5,1.2-4,1.2c-1.9,0-3.4-0.5-4.4-1.6c-1.1-1.1-1.6-2.4-1.6-4
		c0-3.4,2.3-5.5,6.8-6.2l6.1-0.9c0-4.2-1.6-6.4-4.8-6.4c-2.2,0-4.3,0.9-6.3,2.6v-2.1c0.7-0.6,1.7-1.1,3-1.5c1.3-0.4,2.4-0.6,3.5-0.6
		c2,0,3.6,0.6,4.7,1.9c1.1,1.3,1.7,3.1,1.7,5.5v12.8H928.5z M923.1,377.3c-2.1,0.3-3.5,0.8-4.4,1.4c-0.8,0.7-1.3,1.7-1.3,3.2
		c0,1.2,0.4,2.1,1.2,2.9c0.8,0.8,1.9,1.1,3.2,1.1c1.9,0,3.5-0.7,4.7-2.1c1.3-1.4,1.9-3.2,1.9-5.4v-1.9L923.1,377.3z"/>
	<path d="M949.6,387.2v-11.5c0-4.7-1.7-7.1-5.1-7.1c-1.9,0-3.5,0.7-4.7,2.1c-1.2,1.4-1.8,3.1-1.8,5.2v11.3h-1.8v-19.7h1.8v3.6h0.1
		c1.4-2.7,3.7-4.1,6.7-4.1c2.1,0,3.8,0.7,4.9,2.1c1.1,1.4,1.7,3.4,1.7,6.1v12H949.6z"/>
	<path d="M971.3,387.2v-3.6h-0.1c-0.6,1.2-1.6,2.2-2.8,3c-1.3,0.7-2.7,1.1-4.3,1.1c-2.4,0-4.4-0.9-5.9-2.7c-1.5-1.8-2.3-4.2-2.3-7.3
		c0-3.2,0.8-5.8,2.5-7.7c1.7-2,3.8-3,6.5-3c3,0,5.1,1.2,6.3,3.6h0.1V358h1.8v29.2H971.3z M971.3,375.2c0-1.8-0.6-3.4-1.7-4.7
		c-1.2-1.3-2.7-1.9-4.7-1.9c-2.1,0-3.8,0.8-5.1,2.4c-1.3,1.6-2,3.8-2,6.5c0,2.7,0.6,4.8,1.8,6.3s2.8,2.2,4.7,2.2
		c2.2,0,4-0.7,5.2-2.1s1.8-3.1,1.8-5.1V375.2z"/>
	<path d="M1004.2,387.2v-3.6h-0.1c-0.6,1.2-1.6,2.2-2.8,3c-1.3,0.7-2.7,1.1-4.3,1.1c-2.4,0-4.4-0.9-5.9-2.7
		c-1.5-1.8-2.3-4.2-2.3-7.3c0-3.2,0.8-5.8,2.5-7.7c1.7-2,3.8-3,6.5-3c3,0,5.1,1.2,6.3,3.6h0.1V358h1.8v29.2H1004.2z M1004.2,375.2
		c0-1.8-0.6-3.4-1.7-4.7c-1.2-1.3-2.7-1.9-4.7-1.9c-2.1,0-3.8,0.8-5.1,2.4c-1.3,1.6-2,3.8-2,6.5c0,2.7,0.6,4.8,1.8,6.3
		s2.8,2.2,4.7,2.2c2.2,0,4-0.7,5.2-2.1s1.8-3.1,1.8-5.1V375.2z"/>
	<path d="M1012.7,377.4c0,2.7,0.6,4.8,1.9,6.4c1.3,1.5,3,2.3,5.2,2.3c2.2,0,4.4-0.8,6.5-2.4v1.9c-2,1.5-4.3,2.2-6.8,2.2
		c-2.5,0-4.6-0.9-6.2-2.7c-1.6-1.8-2.3-4.4-2.3-7.7c0-2.9,0.8-5.3,2.5-7.3c1.6-2,3.8-3,6.4-3c2.5,0,4.3,0.9,5.6,2.6s2,4.1,2,7v0.8
		H1012.7z M1025.5,375.8c-0.1-2.3-0.6-4-1.6-5.3c-1-1.3-2.4-1.9-4.2-1.9c-1.8,0-3.4,0.6-4.6,1.9c-1.2,1.2-2,3-2.2,5.3H1025.5z"/>
	<path d="M1031.2,386.3v-2.1c0.7,0.6,1.5,1,2.4,1.4c1,0.3,1.8,0.5,2.5,0.5c3.1,0,4.6-1.3,4.6-3.8c0-0.9-0.3-1.6-1-2.2
		c-0.7-0.6-1.8-1.3-3.3-1.9c-1.9-0.8-3.2-1.7-4-2.6c-0.8-0.9-1.1-1.9-1.1-3.2c0-1.6,0.6-2.9,1.8-3.9c1.2-1,2.7-1.5,4.5-1.5
		c1.7,0,3.1,0.3,4.4,1v2c-1.5-1-3-1.4-4.5-1.4c-1.3,0-2.3,0.3-3.1,1c-0.8,0.7-1.2,1.6-1.2,2.6c0,0.9,0.3,1.7,0.8,2.3
		c0.5,0.6,1.6,1.3,3.3,2c2.1,0.9,3.5,1.8,4.2,2.6c0.8,0.8,1.2,1.8,1.2,3.1c0,1.6-0.6,2.9-1.8,3.9c-1.2,1-2.8,1.5-4.9,1.5
		C1034.1,387.6,1032.5,387.2,1031.2,386.3z"/>
	<path d="M1048.4,362.5c-0.4,0-0.7-0.1-1-0.4c-0.3-0.3-0.4-0.6-0.4-1.1c0-0.4,0.2-0.8,0.5-1c0.3-0.3,0.6-0.4,1-0.4
		c0.4,0,0.7,0.1,1,0.4c0.3,0.3,0.5,0.6,0.5,1c0,0.4-0.1,0.8-0.4,1.1C1049.2,362.3,1048.8,362.5,1048.4,362.5z M1047.5,387.2v-19.7
		h1.8v19.7H1047.5z"/>
	<path d="M1071.4,385.7c0,3.7-0.8,6.4-2.4,8.1c-1.6,1.7-4.1,2.6-7.5,2.6c-1.9,0-3.9-0.5-5.9-1.5v-1.8c2.1,1.2,4.1,1.7,5.9,1.7
		c5.4,0,8.2-2.9,8.2-8.6v-2.6h-0.1c-1.6,2.7-3.9,4-7.1,4c-2.4,0-4.4-0.9-5.9-2.6c-1.5-1.8-2.3-4.2-2.3-7.4s0.8-5.7,2.5-7.7
		c1.7-2,3.8-3,6.5-3c2.9,0,5,1.2,6.3,3.6h0.1v-3.1h1.8V385.7z M1069.6,375c0-1.7-0.6-3.3-1.8-4.5c-1.2-1.3-2.7-1.9-4.6-1.9
		c-2.2,0-3.9,0.8-5.2,2.4c-1.3,1.6-2,3.8-2,6.5c0,2.7,0.6,4.8,1.8,6.3c1.2,1.5,2.8,2.2,4.8,2.2c2.1,0,3.8-0.7,5.1-2.1
		c1.3-1.4,1.9-3.1,1.9-5V375z"/>
	<path d="M1091.1,387.2v-11.5c0-4.7-1.7-7.1-5.1-7.1c-1.9,0-3.5,0.7-4.7,2.1c-1.2,1.4-1.8,3.1-1.8,5.2v11.3h-1.8v-19.7h1.8v3.6h0.1
		c1.4-2.7,3.7-4.1,6.7-4.1c2.1,0,3.8,0.7,4.9,2.1c1.1,1.4,1.7,3.4,1.7,6.1v12H1091.1z"/>
	<path d="M1099.2,377.4c0,2.7,0.6,4.8,1.9,6.4c1.3,1.5,3,2.3,5.2,2.3c2.2,0,4.4-0.8,6.5-2.4v1.9c-2,1.5-4.3,2.2-6.8,2.2
		c-2.5,0-4.6-0.9-6.2-2.7c-1.6-1.8-2.3-4.4-2.3-7.7c0-2.9,0.8-5.3,2.5-7.3c1.6-2,3.8-3,6.4-3c2.5,0,4.3,0.9,5.6,2.6s2,4.1,2,7v0.8
		H1099.2z M1112,375.8c-0.1-2.3-0.6-4-1.6-5.3c-1-1.3-2.4-1.9-4.2-1.9c-1.8,0-3.4,0.6-4.6,1.9c-1.2,1.2-2,3-2.2,5.3H1112z"/>
	<path d="M1128,369.3c-0.6-0.4-1.3-0.6-2.1-0.6c-1.6,0-2.9,0.8-3.9,2.4c-1.1,1.6-1.6,3.9-1.6,6.8v9.3h-1.7v-19.7h1.7v4.4h0.1
		c0.4-1.5,1.2-2.7,2.1-3.5c1-0.8,2.1-1.3,3.4-1.3c0.7,0,1.4,0.1,2,0.3V369.3z"/>
</g>
<path class="st0" d="M600.3,216.1c0,0,4.6,0,40.5,0s49.7,0.9,61.7-10.1c12-11,40.5-0.9,50.6,5.1s24.3,5.1,24.3,5.1v-60.8l35.5-22.1
	l35.6,24.2v58.8h58.4v-12h8.2V229h26.1v-22.5v-13.8v-31.8l0,0l39.5-27.6h30.2v27.1l32,0.5v-27.5h44.8v58.9H1067v31.3
	c0,0,94.9,0,99.5,0c4.6,0,9.2-10.1,26.7-11c17.5-0.9,63.5-0.9,63.5-0.9"/>
<path class="st1" d="M977,181.1"/>
</svg>
