<?xml version="1.0" encoding="utf-8"?>
<!-- Generator: Adobe Illustrator 24.0.0, SVG Export Plug-In . SVG Version: 6.00 Build 0)  -->
<svg version="1.1" id="Layer_1" xmlns="http://www.w3.org/2000/svg" xmlns:xlink="http://www.w3.org/1999/xlink" x="0px" y="0px"
	 viewBox="0 0 1920 924" style="enable-background:new 0 0 1920 924;" xml:space="preserve">
<style type="text/css">
	.st0{fill:#CCCCCC;}
	.st1{fill:#FFFFFF;}
</style>
<g>
	<path class="st0" d="M742.17,540.54c-12.88-28.99-25.89-58.39-30.77-89.74s-0.74-65.39,18.13-90.89
		c18.01-24.34,46.79-37.95,74.89-49.23c89.44-35.9,183.94-57.77,279.01-73.54c7.61-1.26,15.79-2.41,22.72,0.95
		c5.87,2.84,9.83,8.45,13.41,13.9c27.52,42.04,47.27,89.14,57.97,138.23c4.47,20.51,7.35,41.98,2.33,62.36
		c-6.45,26.17-25.58,47.94-48.39,62.31c-22.81,14.37-49.16,22.09-75.5,27.78c-42.5,9.19-86.05,13.56-129.53,12.99
		c-49.11-0.64-98.8-7.5-146.95,2.18c-6.91,1.39-14.07,3.12-20.92,1.46c-6.86-1.66-13.19-8.05-12-15"/>
</g>
<g>
	<g>
		<path class="st1" d="M720.05,471c-16.5-14.47-28.37-33.78-33.73-55.08c-2.71-10.77-4.38-22.7-2.15-33.71
			c2.46-12.18,11.06-20.16,21.3-26.36c40.16-24.31,87.62-36.64,134.12-40.32c48.98-3.88,98.21,2.1,145.76,13.96
			c24.24,6.05,48.09,13.6,71.56,22.15c22.8,8.31,45.77,17.02,67.19,28.51c19.93,10.7,38.54,24.45,51.77,43.04
			c6.28,8.82,11.31,18.57,14.34,28.99c2.86,9.85,6.45,25.03-1.41,33.4c-3.65,3.89-8.96,5.88-13.94,7.44
			c-5.31,1.66-10.71,3.07-16.09,4.47c-10.87,2.83-21.83,5.32-32.85,7.47c-22.55,4.41-45.38,7.4-68.3,9
			c-45.35,3.16-91.07,0.91-135.9-6.64c-45.02-7.59-89.18-20.49-131.09-38.6c-20.37-8.81-40.82-18.52-59.63-30.35
			c-8.89-5.59-17.57-12.29-23.07-21.41c-5.89-9.77-6.98-21.27-4.1-32.2c5.84-22.14,23.28-39.41,38.75-55.32
			c16.99-17.48,34.1-34.87,52.1-51.31c18.02-16.46,36.95-32.35,57.54-45.52c9.82-6.28,20.3-11.85,31.63-14.85
			c12-3.18,24.16-2.75,35.96,1.06c11.49,3.71,22.01,9.84,32.38,15.91c10.77,6.31,21.43,12.81,31.96,19.51
			c20.87,13.27,41.27,27.29,61.13,42.03c36.61,27.17,69.98,58.46,106.98,85.08c17.28,12.43,35.54,23.66,55.22,31.87
			c9.81,4.09,19.93,7.42,30.3,9.74c10.01,2.24,20.69,3.98,30.84,1.57c8.32-1.97,15.34-6.94,18.74-14.93
			c2.93-6.89,2.75-15.53-2.92-21c-6.74-6.5-18.3-7.21-27.14-7.55c-10.16-0.39-20.36,0.92-30.18,3.54
			c-20.36,5.44-39,16.42-55.03,29.94c-17.02,14.36-30.25,32.11-43.56,49.79c-13.93,18.5-28.46,36.76-47.76,49.97
			c-18.2,12.46-39.16,20.48-60.74,24.7c-47.74,9.34-96.54-0.57-141.74-16.54c-23.14-8.18-45.41-19.53-69.24-25.64
			c-24-6.15-48.74-4.13-72.7,1.16c-46.08,10.18-89.1,30.37-134.36,43.31c-22.11,6.32-44.75,10.78-67.79,11.37
			c-1.68,0.04-1.68,2.65,0,2.61c47.87-1.24,92.82-18.98,137.35-34.84c22.82-8.13,45.89-15.96,69.67-20.83
			c12.88-2.64,26.01-4.3,39.17-4.06c13.17,0.25,25.96,2.77,38.45,6.87c23.71,7.77,46.27,18.65,70.02,26.39
			c23.74,7.74,48.22,13.53,73.14,15.63c43.82,3.68,90.46-5.01,126-32.17c17.96-13.72,31.63-31.78,45.1-49.71
			c13.99-18.63,28.31-36.82,46.93-51.09c17.65-13.53,38.34-23.88,60.53-26.97c10.9-1.52,22.79-1.52,33.45,1.47
			c5.52,1.55,10.48,4.69,12.11,10.46c1.3,4.62,0.21,9.72-1.98,13.89c-11.18,21.32-44.37,11.39-61.93,5.62
			c-21.12-6.94-40.74-17.77-59.1-30.19c-38.29-25.89-71.93-58.05-108.75-85.92c-20.09-15.21-40.74-29.67-61.89-43.36
			c-10.48-6.78-21.08-13.37-31.8-19.77c-10.55-6.29-21.13-12.76-32.48-17.53c-10.22-4.3-21.13-6.91-32.27-6.1
			c-10.85,0.79-21.27,4.39-30.95,9.22c-21.29,10.62-40.42,26.33-58.37,41.77c-18.82,16.19-36.54,33.61-53.94,51.31
			c-16.09,16.37-33.84,32.56-44.93,52.95c-9.7,17.84-11.69,38.64,1.64,55.24c6.3,7.84,14.7,13.74,23.25,18.87
			c9.78,5.87,19.94,11.16,30.15,16.23c40.91,20.32,84.33,35.53,128.91,45.44c44.81,9.96,90.81,14.6,136.71,13.75
			c45.87-0.85,91.68-7.19,135.98-19.15c8.84-2.39,19.65-4.35,26.26-11.27c7.05-7.38,5.69-18.81,3.98-28.01
			c-3.82-20.53-15.44-39.02-30.14-53.58c-16.28-16.12-36.58-27.54-57.31-36.89c-22.36-10.09-45.49-18.73-68.73-26.56
			c-47.65-16.05-97.16-27.56-147.49-30.14c-47.3-2.43-95.46,3.2-140.09,19.44c-10.77,3.92-21.32,8.45-31.55,13.62
			c-9.68,4.89-20.06,10.03-27.78,17.81c-15.17,15.28-12.02,39.83-6.27,58.66c6.01,19.68,17.49,37.49,32.97,51.06
			C719.46,473.95,721.31,472.11,720.05,471L720.05,471z"/>
	</g>
</g>
</svg>
