<svg id="visual" viewBox="0 0 900 300" width="900" height="300" xmlns="http://www.w3.org/2000/svg" xmlns:xlink="http://www.w3.org/1999/xlink" version="1.1"><rect x="0" y="0" width="900" height="300" fill="#111a21"></rect><path d="M0 144L13.7 145.3C27.3 146.7 54.7 149.3 82 159.8C109.3 170.3 136.7 188.7 163.8 193.2C191 197.7 218 188.3 245.2 186.2C272.3 184 299.7 189 327 183.7C354.3 178.3 381.7 162.7 409 161C436.3 159.3 463.7 171.7 491 172C518.3 172.3 545.7 160.7 573 160.8C600.3 161 627.7 173 654.8 176.2C682 179.3 709 173.7 736.2 170.2C763.3 166.7 790.7 165.3 818 171.5C845.3 177.7 872.7 191.3 886.3 198.2L900 205L900 0L886.3 0C872.7 0 845.3 0 818 0C790.7 0 763.3 0 736.2 0C709 0 682 0 654.8 0C627.7 0 600.3 0 573 0C545.7 0 518.3 0 491 0C463.7 0 436.3 0 409 0C381.7 0 354.3 0 327 0C299.7 0 272.3 0 245.2 0C218 0 191 0 163.8 0C136.7 0 109.3 0 82 0C54.7 0 27.3 0 13.7 0L0 0Z" fill="#602622"></path><path d="M0 101L13.7 113C27.3 125 54.7 149 82 151.8C109.3 154.7 136.7 136.3 163.8 124.5C191 112.7 218 107.3 245.2 112.5C272.3 117.7 299.7 133.3 327 135.2C354.3 137 381.7 125 409 120.2C436.3 115.3 463.7 117.7 491 126.8C518.3 136 545.7 152 573 160.7C600.3 169.3 627.7 170.7 654.8 166.3C682 162 709 152 736.2 145.7C763.3 139.3 790.7 136.7 818 139.5C845.3 142.3 872.7 150.7 886.3 154.8L900 159L900 0L886.3 0C872.7 0 845.3 0 818 0C790.7 0 763.3 0 736.2 0C709 0 682 0 654.8 0C627.7 0 600.3 0 573 0C545.7 0 518.3 0 491 0C463.7 0 436.3 0 409 0C381.7 0 354.3 0 327 0C299.7 0 272.3 0 245.2 0C218 0 191 0 163.8 0C136.7 0 109.3 0 82 0C54.7 0 27.3 0 13.7 0L0 0Z" fill="#652f2a"></path><path d="M0 69L13.7 72C27.3 75 54.7 81 82 88.8C109.3 96.7 136.7 106.3 163.8 102.8C191 99.3 218 82.7 245.2 83.5C272.3 84.3 299.7 102.7 327 102.5C354.3 102.3 381.7 83.7 409 76.5C436.3 69.3 463.7 73.7 491 75.8C518.3 78 545.7 78 573 80.7C600.3 83.3 627.7 88.7 654.8 89.8C682 91 709 88 736.2 88.5C763.3 89 790.7 93 818 98.7C845.3 104.3 872.7 111.7 886.3 115.3L900 119L900 0L886.3 0C872.7 0 845.3 0 818 0C790.7 0 763.3 0 736.2 0C709 0 682 0 654.8 0C627.7 0 600.3 0 573 0C545.7 0 518.3 0 491 0C463.7 0 436.3 0 409 0C381.7 0 354.3 0 327 0C299.7 0 272.3 0 245.2 0C218 0 191 0 163.8 0C136.7 0 109.3 0 82 0C54.7 0 27.3 0 13.7 0L0 0Z" fill="#6b3732"></path><path d="M0 28L13.7 32.3C27.3 36.7 54.7 45.3 82 50.5C109.3 55.7 136.7 57.3 163.8 58.2C191 59 218 59 245.2 55C272.3 51 299.7 43 327 41.2C354.3 39.3 381.7 43.7 409 48.5C436.3 53.3 463.7 58.7 491 55.8C518.3 53 545.7 42 573 35.8C600.3 29.7 627.7 28.3 654.8 32.2C682 36 709 45 736.2 53.7C763.3 62.3 790.7 70.7 818 74.8C845.3 79 872.7 79 886.3 79L900 79L900 0L886.3 0C872.7 0 845.3 0 818 0C790.7 0 763.3 0 736.2 0C709 0 682 0 654.8 0C627.7 0 600.3 0 573 0C545.7 0 518.3 0 491 0C463.7 0 436.3 0 409 0C381.7 0 354.3 0 327 0C299.7 0 272.3 0 245.2 0C218 0 191 0 163.8 0C136.7 0 109.3 0 82 0C54.7 0 27.3 0 13.7 0L0 0Z" fill="#703f3b"></path></svg>