<?xml version="1.0" encoding="UTF-8"?><svg xmlns="http://www.w3.org/2000/svg" viewBox="0 0 206.41 204.34"><defs><style>.d{fill:none;stroke:#fff;stroke-miterlimit:10;}.e{fill:#414042;}</style></defs><g id="a"/><g id="b"><g id="c"><g><g><path class="e" d="M58.22,33.93c-.53-.33-1.21-.58-1.57-1.01-8.38-9.82-17.88-13.49-27.24-17.93-.94-.45-1.89-.96-2.82-1.36-3.21-1.37-6.62-3.83-9.02-2.18-3.35,2.32-5.7,5.37-5.76,10.36,0,.8,.76,2.07,1.29,3.13,2.31,4.56,4.87,9.14,6.94,13.67,2.62,5.71,6.21,10.93,11.54,15.74,1.15,1.04,6.08,5.78,7.02,8.38-6.11-5.46-14.85-13.79-18.01-20.03C17.67,36.96,.7,7.99,0,0,1.81,.53,3.62,1.05,5.43,1.58c11.69,5.74,23.38,11.61,35.05,17.19,7.02,3.36,12.91,8.25,17.86,15.05l-.12,.11Z"/><path class="e" d="M58.34,33.82c1.74,.81,3.09,2.34,4.5,3.74,30.1,29.89,60.18,59.8,90.35,89.62,3.33,3.29,4.12,4.96,2.18,6.85-5.4,5.29-10.41,10.97-15.6,16.47-.74,.79-1.31,1.79-2.68,1.9-1.7-1.58-3.45-3.11-5.1-4.75-17.96-17.81-35.93-35.62-53.85-53.46-9.78-9.74-19.49-19.56-29.23-29.34-1.5-3.69-2.95-7.37-4.52-11.08-.98-2.33-1.6-4.2,1.88-2.21,2.27,1.3,2.56,.35,1.85-1.39-1.83-4.53,.19-4.8,4.04-3.39,2.36,.86,4.61,1.24,6.97,2.08,3.17,1.13,3.75,0,2.76-2.95-1.35-4.03-2.46-7.99-3.68-11.98l.12-.11"/><path class="e" d="M183.07,204.31c-1.94-.53-3.31-2.07-4.72-3.47-6.39-6.35-12.78-12.71-19.17-19.07-.83-.82-1.73-2.03-2.51-2.37-5.67-2.48-3.68-3.55-2.17-5.03,7.21-7.09,14.34-14.25,21.46-21.43,1.41-1.42,1.95-1.99,5.38,1.93,6.16,7.06,13.26,13.6,20.18,20.1,4.06,3.81,5.31,6.54,4.78,10.01-1.85,12.2-10.16,17.57-22.03,19.33-.41,.06-.9,0-1.2,0"/><path class="e" d="M137.1,152.4c-2.36,5.36-2.83,5.27-9.9-1.74-28.88-28.68-57.77-57.35-86.64-86.04-1.35-1.34-3.05-2.56-3.86-4.58,3.96,.62,8.26,3.56,12.21,4.81"/><path class="e" d="M49.04,64.97c9.71,9.76,19.39,19.55,29.15,29.26,17.88,17.8,35.8,35.56,53.71,53.32,1.64,1.63,3.39,3.16,5.09,4.73"/><path class="d" d="M49.04,64.97c9.71,9.76,19.39,19.55,29.15,29.26,17.88,17.8,35.8,35.56,53.71,53.32,1.64,1.63,3.39,3.16,5.09,4.73"/><path class="e" d="M150.27,174c-.33-.25-1.03-.65-1.57-1.21-.89-.93-.63-1.51-.24-1.92,.81-.86,1.67-1.68,2.51-2.51,6.57-6.57,13.14-13.14,19.71-19.71,.45-.45,.9-.9,1.36-1.34,.69-.65,1.66-.63,3,.7,1.52,1.52,.95,2.21,.36,2.81-2.49,2.53-4.99,5.05-7.52,7.55-5.06,4.99-10.14,9.96-15.22,14.92-.51,.49-.79,1.3-2.39,.71"/><path class="e" d="M138.9,162.73c.3-.43,.6-1.01,1.03-1.44,7.45-7.47,14.9-14.93,22.39-22.36,.74-.73,1.38-2.12,3.49,.02,2.18,2.21,.5,2.69-.18,3.38-7.32,7.34-14.71,14.6-22.09,21.88-.64,.63-1.15,1.49-2.87,.47-.7-.42-1.3-.95-1.76-1.94"/><path class="e" d="M145.8,169.47c-.47-.36-1.17-.78-1.69-1.34-.7-.74-.51-1.24-.18-1.59,.37-.4,.75-.79,1.14-1.18,7.26-7.16,14.52-14.31,21.78-21.46,.32-.32,.64-.64,.99-.94,.62-.51,1.39-.7,2.63,.58,1.1,1.13,.75,1.73,.33,2.25-.29,.35-.62,.67-.94,.99-7.14,7.14-14.28,14.29-21.44,21.42-.63,.62-1.03,1.55-2.62,1.27"/><path class="e" d="M137.46,160.61c-1.31-.39-1.92-1.04-1.7-1.82,.16-.56,.61-.92,.99-1.31,7.05-7.51,14.11-15.02,21.17-22.52,.38-.4,.78-.77,1.21-1.11,.6-.48,1.5-.17,2.44,.78,.89,.9,.69,1.5,.33,1.95-.23,.29-.47,.56-.73,.81-7.35,7.35-14.7,14.69-22.06,22.02-.51,.5-1.17,.85-1.64,1.2"/></g><path class="d" d="M61.61,49.36l89.93,88.34M48.02,52.27l95.5,94.5"/></g></g></g></svg>